<svg width="414" height="414" viewBox="0 0 414 414" fill="none" xmlns="http://www.w3.org/2000/svg">
<g clip-path="url(#clip0)">
<rect width="414" height="414" fill="#9E9966"/>
<rect width="414" height="414" fill="#504141"/>
<rect x="207" y="207" width="207" height="207" fill="white"/>
<rect y="207" width="207" height="207" fill="white"/>
<rect width="207" height="207" fill="white"/>
<rect x="207" width="207" height="207" fill="white"/>
<rect x="6" y="213" width="195" height="195" fill="black"/>
<rect x="6" y="6" width="195" height="195" fill="black"/>
<rect x="213" y="6" width="195" height="195" fill="black"/>
<rect x="213" y="213" width="195" height="195" fill="black"/>
<path d="M96.8281 115.5C92.9844 115.5 91.0625 115.5 91.0625 115.5C91.0625 115.5 91.0625 113.719 91.0625 110.156C91.0625 106.594 91.0625 104.812 91.0625 104.812C91.0625 104.812 92.9844 104.812 96.8281 104.812C100.672 104.812 102.594 104.812 102.594 104.812C102.594 104.812 102.594 106.594 102.594 110.156C102.594 113.719 102.594 115.5 102.594 115.5C102.594 115.5 100.672 115.5 96.8281 115.5ZM96.8281 104.812C92.9844 104.812 91.0625 104.812 91.0625 104.812C91.0625 104.812 91.0625 103.031 91.0625 99.4688C91.0625 95.9062 91.0625 94.125 91.0625 94.125C91.0625 94.125 92.9844 94.125 96.8281 94.125C100.672 94.125 102.594 94.125 102.594 94.125C102.594 94.125 102.594 95.9062 102.594 99.4688C102.594 103.031 102.594 104.812 102.594 104.812C102.594 104.812 100.672 104.812 96.8281 104.812ZM108.359 115.5C104.516 115.5 102.594 115.5 102.594 115.5C102.594 115.5 102.594 113.719 102.594 110.156C102.594 106.594 102.594 104.812 102.594 104.812C102.594 104.812 104.516 104.812 108.359 104.812C112.203 104.812 114.125 104.812 114.125 104.812C114.125 104.812 114.125 106.594 114.125 110.156C114.125 113.719 114.125 115.5 114.125 115.5C114.125 115.5 112.203 115.5 108.359 115.5ZM108.359 104.812C104.516 104.812 102.594 104.812 102.594 104.812C102.594 104.812 102.594 103.031 102.594 99.4688C102.594 95.9062 102.594 94.125 102.594 94.125C102.594 94.125 104.516 94.125 108.359 94.125C112.203 94.125 114.125 94.125 114.125 94.125C114.125 94.125 114.125 95.9062 114.125 99.4688C114.125 103.031 114.125 104.812 114.125 104.812C114.125 104.812 112.203 104.812 108.359 104.812ZM96.8281 94.125C92.9844 94.125 91.0625 94.125 91.0625 94.125C91.0625 94.125 91.0625 92.3438 91.0625 88.7812C91.0625 85.2188 91.0625 82.5 91.0625 80.625C91.0625 78.6562 91.0625 72.2812 91.0625 61.5C91.0625 51.0938 91.0625 45.0469 91.0625 43.3594C91.0625 41.5781 91.0625 38.9062 91.0625 35.3438C91.0625 31.7813 91.0625 30 91.0625 30C91.0625 30 92.9844 30 96.8281 30C100.672 30 102.594 30 102.594 30C102.594 30 102.594 31.7813 102.594 35.3438C102.594 38.9062 102.594 41.5781 102.594 43.3594C102.594 45.1406 102.594 51.1875 102.594 61.5C102.594 72.4688 102.594 78.8906 102.594 80.7656C102.594 82.5469 102.594 85.2188 102.594 88.7812C102.594 92.3438 102.594 94.125 102.594 94.125C102.594 94.125 100.672 94.125 96.8281 94.125ZM108.359 94.125C104.516 94.125 102.594 94.125 102.594 94.125C102.594 94.125 102.594 92.3438 102.594 88.7812C102.594 85.2188 102.594 82.5 102.594 80.625C102.594 78.6562 102.594 72.2812 102.594 61.5C102.594 51.0938 102.594 45.0469 102.594 43.3594C102.594 41.5781 102.594 38.9062 102.594 35.3438C102.594 31.7813 102.594 30 102.594 30C102.594 30 104.516 30 108.359 30C112.203 30 114.125 30 114.125 30C114.125 30 114.125 31.7813 114.125 35.3438C114.125 38.9062 114.125 41.5781 114.125 43.3594C114.125 45.1406 114.125 51.1875 114.125 61.5C114.125 72.4688 114.125 78.8906 114.125 80.7656C114.125 82.5469 114.125 85.2188 114.125 88.7812C114.125 92.3438 114.125 94.125 114.125 94.125C114.125 94.125 112.203 94.125 108.359 94.125ZM96.8281 179.625C92.9844 179.625 91.0625 179.625 91.0625 179.625C91.0625 179.625 91.0625 177.844 91.0625 174.281C91.0625 170.719 91.0625 168.094 91.0625 166.406C91.0625 164.625 91.0625 158.344 91.0625 147.562C91.0625 137.156 91.0625 131.016 91.0625 129.141C91.0625 127.172 91.0625 124.406 91.0625 120.844C91.0625 117.281 91.0625 115.5 91.0625 115.5C91.0625 115.5 92.9844 115.5 96.8281 115.5C100.672 115.5 102.594 115.5 102.594 115.5C102.594 115.5 102.594 117.281 102.594 120.844C102.594 124.406 102.594 127.172 102.594 129.141C102.594 131.109 102.594 137.25 102.594 147.562C102.594 158.531 102.594 164.859 102.594 166.547C102.594 168.141 102.594 170.719 102.594 174.281C102.594 177.844 102.594 179.625 102.594 179.625C102.594 179.625 100.672 179.625 96.8281 179.625ZM108.359 179.625C104.516 179.625 102.594 179.625 102.594 179.625C102.594 179.625 102.594 177.844 102.594 174.281C102.594 170.719 102.594 168.094 102.594 166.406C102.594 164.625 102.594 158.344 102.594 147.562C102.594 137.156 102.594 131.016 102.594 129.141C102.594 127.172 102.594 124.406 102.594 120.844C102.594 117.281 102.594 115.5 102.594 115.5C102.594 115.5 104.516 115.5 108.359 115.5C112.203 115.5 114.125 115.5 114.125 115.5C114.125 115.5 114.125 117.281 114.125 120.844C114.125 124.406 114.125 127.172 114.125 129.141C114.125 131.109 114.125 137.25 114.125 147.562C114.125 158.531 114.125 164.859 114.125 166.547C114.125 168.141 114.125 170.719 114.125 174.281C114.125 177.844 114.125 179.625 114.125 179.625C114.125 179.625 112.203 179.625 108.359 179.625ZM96.8281 201C92.9844 201 91.0625 201 91.0625 201C91.0625 201 91.0625 199.219 91.0625 195.656C91.0625 192.094 91.0625 190.312 91.0625 190.312C91.0625 190.312 92.9844 190.312 96.8281 190.312C100.672 190.312 102.594 190.312 102.594 190.312C102.594 190.312 102.594 192.094 102.594 195.656C102.594 199.219 102.594 201 102.594 201C102.594 201 100.672 201 96.8281 201ZM96.8281 190.312C92.9844 190.312 91.0625 190.312 91.0625 190.312C91.0625 190.312 91.0625 188.531 91.0625 184.969C91.0625 181.406 91.0625 179.625 91.0625 179.625C91.0625 179.625 92.9844 179.625 96.8281 179.625C100.672 179.625 102.594 179.625 102.594 179.625C102.594 179.625 102.594 181.406 102.594 184.969C102.594 188.531 102.594 190.312 102.594 190.312C102.594 190.312 100.672 190.312 96.8281 190.312ZM108.359 201C104.516 201 102.594 201 102.594 201C102.594 201 102.594 199.219 102.594 195.656C102.594 192.094 102.594 190.312 102.594 190.312C102.594 190.312 104.516 190.312 108.359 190.312C112.203 190.312 114.125 190.312 114.125 190.312C114.125 190.312 114.125 192.094 114.125 195.656C114.125 199.219 114.125 201 114.125 201C114.125 201 112.203 201 108.359 201ZM108.359 190.312C104.516 190.312 102.594 190.312 102.594 190.312C102.594 190.312 102.594 188.531 102.594 184.969C102.594 181.406 102.594 179.625 102.594 179.625C102.594 179.625 104.516 179.625 108.359 179.625C112.203 179.625 114.125 179.625 114.125 179.625C114.125 179.625 114.125 181.406 114.125 184.969C114.125 188.531 114.125 190.312 114.125 190.312C114.125 190.312 112.203 190.312 108.359 190.312ZM96.8281 30C92.9844 30 91.0625 30 91.0625 30C91.0625 30 91.0625 28.2187 91.0625 24.6562C91.0625 21.0938 91.0625 19.3125 91.0625 19.3125C91.0625 19.3125 92.9844 19.3125 96.8281 19.3125C100.672 19.3125 102.594 19.3125 102.594 19.3125C102.594 19.3125 102.594 21.0938 102.594 24.6562C102.594 28.2187 102.594 30 102.594 30C102.594 30 100.672 30 96.8281 30ZM96.8281 19.3125C92.9844 19.3125 91.0625 19.3125 91.0625 19.3125C91.0625 19.3125 91.0625 17.5312 91.0625 13.9688C91.0625 10.4063 91.0625 8.625 91.0625 8.625C91.0625 8.625 92.9844 8.625 96.8281 8.625C100.672 8.625 102.594 8.625 102.594 8.625C102.594 8.625 102.594 10.4063 102.594 13.9688C102.594 17.5312 102.594 19.3125 102.594 19.3125C102.594 19.3125 100.672 19.3125 96.8281 19.3125ZM108.359 30C104.516 30 102.594 30 102.594 30C102.594 30 102.594 28.2187 102.594 24.6562C102.594 21.0938 102.594 19.3125 102.594 19.3125C102.594 19.3125 104.516 19.3125 108.359 19.3125C112.203 19.3125 114.125 19.3125 114.125 19.3125C114.125 19.3125 114.125 21.0938 114.125 24.6562C114.125 28.2187 114.125 30 114.125 30C114.125 30 112.203 30 108.359 30ZM108.359 19.3125C104.516 19.3125 102.594 19.3125 102.594 19.3125C102.594 19.3125 102.594 17.5312 102.594 13.9688C102.594 10.4063 102.594 8.625 102.594 8.625C102.594 8.625 104.516 8.625 108.359 8.625C112.203 8.625 114.125 8.625 114.125 8.625C114.125 8.625 114.125 10.4063 114.125 13.9688C114.125 17.5312 114.125 19.3125 114.125 19.3125C114.125 19.3125 112.203 19.3125 108.359 19.3125Z" fill="white"/>
<path d="M299.172 179.625C295.328 179.625 293.406 179.625 293.406 179.625C293.406 179.625 292.656 178.078 291.156 174.984C289.281 171.141 286.047 164.203 281.453 154.172C276.859 144.141 271.141 131.672 264.297 116.766C262.797 113.484 262.047 111.844 262.047 111.844C262.047 111.844 263.781 111.094 267.25 109.594C270.531 108.188 272.172 107.484 272.172 107.484C272.172 107.484 272.875 109.125 274.281 112.406C279.531 124.031 284.406 134.625 288.906 144.188C293.5 153.75 296.875 160.922 299.031 165.703C303.062 174.984 305.078 179.625 305.078 179.625C305.078 179.625 303.109 179.625 299.172 179.625ZM307.75 173.016C305.969 177.422 305.078 179.625 305.078 179.625C305.078 179.625 303.062 174.984 299.031 165.703C296.875 160.922 293.5 153.75 288.906 144.188C284.406 134.625 279.531 124.031 274.281 112.406C272.875 109.125 272.172 107.484 272.172 107.484C272.172 107.484 273.859 106.734 277.234 105.234C280.516 103.734 282.156 102.984 282.156 102.984C282.156 102.984 282.859 104.672 284.266 108.047C289.609 120.609 294.438 131.578 298.75 140.953C303.156 150.328 306.109 156.703 307.609 160.078C309.484 164.391 310.422 166.547 310.422 166.547C310.422 166.547 309.531 168.703 307.75 173.016ZM321.672 179.625C317.734 179.625 315.766 179.625 315.766 179.625C315.766 179.625 317.5 175.828 320.969 168.234C323.125 163.453 326.359 156.281 330.672 146.719C334.984 137.062 340 125.906 345.719 113.25C347.125 109.969 347.828 108.328 347.828 108.328C347.828 108.328 349.422 109.031 352.609 110.438C355.797 111.844 357.391 112.547 357.391 112.547C357.391 112.547 356.688 114.141 355.281 117.328C348.531 132.422 343.047 144.844 338.828 154.594C334.609 164.344 331.562 171.141 329.688 174.984C328.188 178.078 327.438 179.625 327.438 179.625C327.438 179.625 325.516 179.625 321.672 179.625ZM313.094 173.016C311.312 168.703 310.422 166.547 310.422 166.547C310.422 166.547 311.312 164.391 313.094 160.078C314.688 156.328 317.5 150.094 321.531 141.375C325.562 132.562 330.438 121.781 336.156 109.031C337.562 105.844 338.266 104.25 338.266 104.25C338.266 104.25 339.906 104.953 343.188 106.359C346.281 107.672 347.828 108.328 347.828 108.328C347.828 108.328 347.125 109.969 345.719 113.25C340 125.906 334.984 137.062 330.672 146.719C326.359 156.281 323.125 163.453 320.969 168.234C317.5 175.828 315.766 179.625 315.766 179.625C315.766 179.625 314.875 177.422 313.094 173.016ZM306.766 201C304.141 201 302.828 201 302.828 201C302.828 201 302.031 199.172 300.438 195.516C298.656 191.672 297.766 189.75 297.766 189.75C297.766 189.75 299.828 189.75 303.953 189.75C308.266 189.75 310.422 189.75 310.422 189.75C310.422 189.75 310.422 191.672 310.422 195.516C310.422 199.172 310.422 201 310.422 201C310.422 201 309.203 201 306.766 201ZM303.953 189.75C299.828 189.75 297.766 189.75 297.766 189.75C297.766 189.75 297.062 188.062 295.656 184.688C294.156 181.312 293.406 179.625 293.406 179.625C293.406 179.625 295.328 179.625 299.172 179.625C303.109 179.625 305.078 179.625 305.078 179.625C305.078 179.625 305.922 181.219 307.609 184.406C309.484 187.969 310.422 189.75 310.422 189.75C310.422 189.75 308.266 189.75 303.953 189.75ZM307.609 184.406C305.922 181.219 305.078 179.625 305.078 179.625C305.078 179.625 305.969 177.422 307.75 173.016C309.531 168.703 310.422 166.547 310.422 166.547C310.422 166.547 311.312 168.703 313.094 173.016C314.875 177.422 315.766 179.625 315.766 179.625C315.766 179.625 314.922 181.219 313.234 184.406C311.359 187.969 310.422 189.75 310.422 189.75C310.422 189.75 309.484 187.969 307.609 184.406ZM314.078 201C311.641 201 310.422 201 310.422 201C310.422 201 310.422 199.172 310.422 195.516C310.422 191.672 310.422 189.75 310.422 189.75C310.422 189.75 312.578 189.75 316.891 189.75C321.016 189.75 323.078 189.75 323.078 189.75C323.078 189.75 322.188 191.672 320.406 195.516C318.812 199.172 318.016 201 318.016 201C318.016 201 316.703 201 314.078 201ZM316.891 189.75C312.578 189.75 310.422 189.75 310.422 189.75C310.422 189.75 311.359 187.969 313.234 184.406C314.922 181.219 315.766 179.625 315.766 179.625C315.766 179.625 317.734 179.625 321.672 179.625C325.516 179.625 327.438 179.625 327.438 179.625C327.438 179.625 326.688 181.312 325.188 184.688C323.781 188.062 323.078 189.75 323.078 189.75C323.078 189.75 321.016 189.75 316.891 189.75ZM377.219 27.6094C374.031 26.2969 372.438 25.6406 372.438 25.6406C372.438 25.6406 373.141 24.0469 374.547 20.8594C375.859 17.6719 376.516 16.0781 376.516 16.0781C376.516 16.0781 378.109 16.7344 381.297 18.0469C384.484 19.4531 386.078 20.1562 386.078 20.1562C386.078 20.1562 385.375 21.75 383.969 24.9375C382.656 28.125 382 29.7188 382 29.7188C382 29.7188 380.406 29.0156 377.219 27.6094ZM381.297 18.0469C378.109 16.7344 376.516 16.0781 376.516 16.0781C376.516 16.0781 377.219 14.4844 378.625 11.2969C380.031 8.10937 380.734 6.51562 380.734 6.51562C380.734 6.51562 382.328 7.21875 385.516 8.625C388.703 9.9375 390.297 10.5938 390.297 10.5938C390.297 10.5938 389.594 12.1875 388.188 15.375C386.781 18.5625 386.078 20.1562 386.078 20.1562C386.078 20.1562 384.484 19.4531 381.297 18.0469ZM386.781 31.8281C383.594 30.4219 382 29.7188 382 29.7188C382 29.7188 382.656 28.125 383.969 24.9375C385.375 21.75 386.078 20.1562 386.078 20.1562C386.078 20.1562 387.672 20.8594 390.859 22.2656C394.047 23.6719 395.641 24.375 395.641 24.375C395.641 24.375 394.938 25.9687 393.531 29.1562C392.219 32.3438 391.562 33.9375 391.562 33.9375C391.562 33.9375 389.969 33.2344 386.781 31.8281ZM390.859 22.2656C387.672 20.8594 386.078 20.1562 386.078 20.1562C386.078 20.1562 386.781 18.5625 388.188 15.375C389.594 12.1875 390.297 10.5938 390.297 10.5938C390.297 10.5938 391.891 11.2969 395.078 12.7031C398.266 14.1094 399.859 14.8125 399.859 14.8125C399.859 14.8125 399.156 16.4062 397.75 19.5938C396.344 22.7813 395.641 24.375 395.641 24.375C395.641 24.375 394.047 23.6719 390.859 22.2656ZM342.906 106.219C339.719 104.906 338.125 104.25 338.125 104.25C338.125 104.25 338.828 102.656 340.234 99.4688C341.641 96.2812 342.344 94.6875 342.344 94.6875C342.344 94.6875 343.938 95.3906 347.125 96.7969C350.312 98.1094 351.906 98.7656 351.906 98.7656C351.906 98.7656 351.203 100.359 349.797 103.547C348.391 106.734 347.688 108.328 347.688 108.328C347.688 108.328 346.094 107.625 342.906 106.219ZM347.125 96.7969C343.938 95.3906 342.344 94.6875 342.344 94.6875C342.344 94.6875 343 93.0938 344.312 89.9062C345.719 86.7188 346.422 85.125 346.422 85.125C346.422 85.125 348.016 85.8281 351.203 87.2344C354.391 88.6406 355.984 89.3438 355.984 89.3438C355.984 89.3438 355.281 90.9375 353.875 94.125C352.562 97.2188 351.906 98.7656 351.906 98.7656C351.906 98.7656 350.312 98.1094 347.125 96.7969ZM352.469 110.438C349.281 109.031 347.688 108.328 347.688 108.328C347.688 108.328 348.391 106.734 349.797 103.547C351.203 100.359 351.906 98.7656 351.906 98.7656C351.906 98.7656 353.453 99.4688 356.547 100.875C359.734 102.281 361.328 102.984 361.328 102.984C361.328 102.984 360.672 104.578 359.359 107.766C357.953 110.953 357.25 112.547 357.25 112.547C357.25 112.547 355.656 111.844 352.469 110.438ZM356.547 100.875C353.453 99.4688 351.906 98.7656 351.906 98.7656C351.906 98.7656 352.562 97.2188 353.875 94.125C355.281 90.9375 355.984 89.3438 355.984 89.3438C355.984 89.3438 357.578 90 360.766 91.3125C363.953 92.7188 365.547 93.4219 365.547 93.4219C365.547 93.4219 364.844 95.0156 363.438 98.2031C362.031 101.391 361.328 102.984 361.328 102.984C361.328 102.984 359.734 102.281 356.547 100.875ZM351.203 87.2344C348.016 85.8281 346.422 85.125 346.422 85.125C346.422 85.125 347.125 83.5312 348.531 80.3438C349.938 77.1562 351.062 74.625 351.906 72.75C352.75 70.7812 355.328 64.875 359.641 55.0312C363.766 45.4688 366.203 39.7969 366.953 38.0156C367.703 36.2344 368.828 33.7031 370.328 30.4219C371.734 27.2344 372.438 25.6406 372.438 25.6406C372.438 25.6406 374.031 26.2969 377.219 27.6094C380.406 29.0156 382 29.7188 382 29.7188C382 29.7188 381.297 31.3594 379.891 34.6406C378.391 37.9219 377.266 40.4531 376.516 42.2344C375.766 44.0156 373.328 49.6406 369.203 59.1094C364.797 69.1406 362.172 75.0938 361.328 76.9688C360.578 78.8438 359.5 81.375 358.094 84.5625C356.688 87.75 355.984 89.3438 355.984 89.3438C355.984 89.3438 354.391 88.6406 351.203 87.2344ZM360.766 91.3125C357.578 90 355.984 89.3438 355.984 89.3438C355.984 89.3438 356.688 87.75 358.094 84.5625C359.5 81.375 360.625 78.8438 361.469 76.9688C362.312 75 364.891 69.0469 369.203 59.1094C373.328 49.5469 375.766 43.9219 376.516 42.2344C377.266 40.4531 378.391 37.9219 379.891 34.6406C381.297 31.3594 382 29.7188 382 29.7188C382 29.7188 383.594 30.4219 386.781 31.8281C389.969 33.2344 391.562 33.9375 391.562 33.9375C391.562 33.9375 390.812 35.5312 389.312 38.7188C387.906 42 386.781 44.5781 385.938 46.4531C385.188 48.2344 382.75 53.8594 378.625 63.3281C374.312 73.3594 371.734 79.3125 370.891 81.1875C370.141 82.9688 369.062 85.4531 367.656 88.6406C366.25 91.8281 365.547 93.4219 365.547 93.4219C365.547 93.4219 363.953 92.7188 360.766 91.3125ZM233.219 30.8438C229.844 32.3438 228.156 33.0938 228.156 33.0938C228.156 33.0938 227.5 31.5 226.188 28.3125C224.781 25.125 224.078 23.5312 224.078 23.5312C224.078 23.5312 225.766 22.7813 229.141 21.2812C232.516 19.875 234.203 19.1719 234.203 19.1719C234.203 19.1719 234.859 20.7656 236.172 23.9531C237.578 27.1406 238.281 28.7344 238.281 28.7344C238.281 28.7344 236.594 29.4375 233.219 30.8438ZM229.141 21.2812C225.766 22.7813 224.078 23.5312 224.078 23.5312C224.078 23.5312 223.375 21.9375 221.969 18.75C220.656 15.5625 220 13.9688 220 13.9688C220 13.9688 221.688 13.2188 225.062 11.7188C228.344 10.3125 229.984 9.60938 229.984 9.60938C229.984 9.60938 230.688 11.2031 232.094 14.3906C233.5 17.5781 234.203 19.1719 234.203 19.1719C234.203 19.1719 232.516 19.875 229.141 21.2812ZM243.344 26.625C239.969 28.0312 238.281 28.7344 238.281 28.7344C238.281 28.7344 237.578 27.1406 236.172 23.9531C234.859 20.7656 234.203 19.1719 234.203 19.1719C234.203 19.1719 235.844 18.4688 239.125 17.0625C242.5 15.5625 244.188 14.8125 244.188 14.8125C244.188 14.8125 244.891 16.4062 246.297 19.5938C247.609 22.7813 248.266 24.375 248.266 24.375C248.266 24.375 246.625 25.125 243.344 26.625ZM239.125 17.0625C235.844 18.4688 234.203 19.1719 234.203 19.1719C234.203 19.1719 233.5 17.5781 232.094 14.3906C230.688 11.2031 229.984 9.60938 229.984 9.60938C229.984 9.60938 231.672 8.90625 235.047 7.5C238.422 6 240.109 5.25 240.109 5.25C240.109 5.25 240.812 6.84375 242.219 10.0312C243.531 13.2188 244.188 14.8125 244.188 14.8125C244.188 14.8125 242.5 15.5625 239.125 17.0625ZM258.953 90.6094C255.578 92.0156 253.891 92.7188 253.891 92.7188C253.891 92.7188 253.188 91.125 251.781 87.9375C250.375 84.6562 249.25 82.0781 248.406 80.2031C247.562 78.2344 245.031 72.2812 240.812 62.3438C236.688 52.7812 234.25 47.1562 233.5 45.4688C232.75 43.7812 231.672 41.2969 230.266 38.0156C228.859 34.7344 228.156 33.0938 228.156 33.0938C228.156 33.0938 229.844 32.3438 233.219 30.8438C236.594 29.4375 238.281 28.7344 238.281 28.7344C238.281 28.7344 238.984 30.375 240.391 33.6562C241.797 36.9375 242.875 39.4687 243.625 41.25C244.375 42.9375 246.812 48.5156 250.938 57.9844C255.25 68.1094 257.781 74.1094 258.531 75.9844C259.375 77.7656 260.5 80.2969 261.906 83.5781C263.312 86.7656 264.016 88.3594 264.016 88.3594C264.016 88.3594 262.328 89.1094 258.953 90.6094ZM268.938 86.25C265.656 87.6562 264.016 88.3594 264.016 88.3594C264.016 88.3594 263.312 86.7656 261.906 83.5781C260.5 80.2969 259.375 77.7188 258.531 75.8438C257.688 73.875 255.156 67.9219 250.938 57.9844C246.812 48.5156 244.375 42.9375 243.625 41.25C242.875 39.4687 241.797 36.9375 240.391 33.6562C238.984 30.375 238.281 28.7344 238.281 28.7344C238.281 28.7344 239.969 28.0312 243.344 26.625C246.625 25.125 248.266 24.375 248.266 24.375C248.266 24.375 249.016 26.0156 250.516 29.2969C251.922 32.5781 253 35.1094 253.75 36.8906C254.5 38.6719 256.891 44.2969 260.922 53.7656C265.328 63.7969 267.906 69.75 268.656 71.625C269.5 73.5 270.625 76.0781 272.031 79.3594C273.344 82.4531 274 84 274 84C274 84 272.312 84.75 268.938 86.25ZM267.109 109.734C263.734 111.141 262.047 111.844 262.047 111.844C262.047 111.844 261.391 110.25 260.078 107.062C258.672 103.875 257.969 102.281 257.969 102.281C257.969 102.281 259.656 101.578 263.031 100.172C266.406 98.6719 268.094 97.9219 268.094 97.9219C268.094 97.9219 268.75 99.5156 270.062 102.703C271.469 105.891 272.172 107.484 272.172 107.484C272.172 107.484 270.484 108.234 267.109 109.734ZM263.031 100.172C259.656 101.578 257.969 102.281 257.969 102.281C257.969 102.281 257.312 100.688 256 97.5C254.594 94.3125 253.891 92.7188 253.891 92.7188C253.891 92.7188 255.578 92.0156 258.953 90.6094C262.328 89.1094 264.016 88.3594 264.016 88.3594C264.016 88.3594 264.672 89.9531 265.984 93.1406C267.391 96.3281 268.094 97.9219 268.094 97.9219C268.094 97.9219 266.406 98.6719 263.031 100.172ZM277.234 105.375C273.859 106.781 272.172 107.484 272.172 107.484C272.172 107.484 271.469 105.891 270.062 102.703C268.75 99.5156 268.094 97.9219 268.094 97.9219C268.094 97.9219 269.781 97.2188 273.156 95.8125C276.438 94.3125 278.078 93.5625 278.078 93.5625C278.078 93.5625 278.781 95.1562 280.188 98.3438C281.594 101.531 282.297 103.125 282.297 103.125C282.297 103.125 280.609 103.875 277.234 105.375ZM273.156 95.8125C269.781 97.2188 268.094 97.9219 268.094 97.9219C268.094 97.9219 267.391 96.3281 265.984 93.1406C264.672 89.9531 264.016 88.3594 264.016 88.3594C264.016 88.3594 265.656 87.6562 268.938 86.25C272.312 84.75 274 84 274 84C274 84 274.703 85.5938 276.109 88.7812C277.422 91.9688 278.078 93.5625 278.078 93.5625C278.078 93.5625 276.438 94.3125 273.156 95.8125Z" fill="white"/>
<path d="M92.1719 241.375C88.3281 241.375 86.4062 241.375 86.4062 241.375C86.4062 241.375 85.6562 242.922 84.1562 246.016C82.2812 249.859 79.0469 256.797 74.4531 266.828C69.8594 276.859 64.1406 289.328 57.2969 304.234C55.7969 307.516 55.0469 309.156 55.0469 309.156C55.0469 309.156 56.7812 309.906 60.25 311.406C63.5312 312.812 65.1719 313.516 65.1719 313.516C65.1719 313.516 65.875 311.875 67.2812 308.594C72.5312 296.969 77.4062 286.375 81.9062 276.812C86.5 267.25 89.875 260.078 92.0312 255.297C96.0625 246.016 98.0781 241.375 98.0781 241.375C98.0781 241.375 96.1094 241.375 92.1719 241.375ZM100.75 247.984C98.9688 243.578 98.0781 241.375 98.0781 241.375C98.0781 241.375 96.0625 246.016 92.0312 255.297C89.875 260.078 86.5 267.25 81.9062 276.812C77.4062 286.375 72.5312 296.969 67.2812 308.594C65.875 311.875 65.1719 313.516 65.1719 313.516C65.1719 313.516 66.8594 314.266 70.2344 315.766C73.5156 317.266 75.1562 318.016 75.1562 318.016C75.1562 318.016 75.8594 316.328 77.2656 312.953C82.6094 300.391 87.4375 289.422 91.75 280.047C96.1562 270.672 99.1094 264.297 100.609 260.922C102.484 256.609 103.422 254.453 103.422 254.453C103.422 254.453 102.531 252.297 100.75 247.984ZM114.672 241.375C110.734 241.375 108.766 241.375 108.766 241.375C108.766 241.375 110.5 245.172 113.969 252.766C116.125 257.547 119.359 264.719 123.672 274.281C127.984 283.938 133 295.094 138.719 307.75C140.125 311.031 140.828 312.672 140.828 312.672C140.828 312.672 142.422 311.969 145.609 310.562C148.797 309.156 150.391 308.453 150.391 308.453C150.391 308.453 149.688 306.859 148.281 303.672C141.531 288.578 136.047 276.156 131.828 266.406C127.609 256.656 124.562 249.859 122.688 246.016C121.188 242.922 120.438 241.375 120.438 241.375C120.438 241.375 118.516 241.375 114.672 241.375ZM106.094 247.984C104.312 252.297 103.422 254.453 103.422 254.453C103.422 254.453 104.312 256.609 106.094 260.922C107.688 264.672 110.5 270.906 114.531 279.625C118.562 288.438 123.438 299.219 129.156 311.969C130.562 315.156 131.266 316.75 131.266 316.75C131.266 316.75 132.906 316.047 136.188 314.641C139.281 313.328 140.828 312.672 140.828 312.672C140.828 312.672 140.125 311.031 138.719 307.75C133 295.094 127.984 283.938 123.672 274.281C119.359 264.719 116.125 257.547 113.969 252.766C110.5 245.172 108.766 241.375 108.766 241.375C108.766 241.375 107.875 243.578 106.094 247.984ZM99.7656 220C97.1406 220 95.8281 220 95.8281 220C95.8281 220 95.0312 221.828 93.4375 225.484C91.6562 229.328 90.7656 231.25 90.7656 231.25C90.7656 231.25 92.8281 231.25 96.9531 231.25C101.266 231.25 103.422 231.25 103.422 231.25C103.422 231.25 103.422 229.328 103.422 225.484C103.422 221.828 103.422 220 103.422 220C103.422 220 102.203 220 99.7656 220ZM96.9531 231.25C92.8281 231.25 90.7656 231.25 90.7656 231.25C90.7656 231.25 90.0625 232.938 88.6562 236.312C87.1562 239.688 86.4062 241.375 86.4062 241.375C86.4062 241.375 88.3281 241.375 92.1719 241.375C96.1094 241.375 98.0781 241.375 98.0781 241.375C98.0781 241.375 98.9219 239.781 100.609 236.594C102.484 233.031 103.422 231.25 103.422 231.25C103.422 231.25 101.266 231.25 96.9531 231.25ZM100.609 236.594C98.9219 239.781 98.0781 241.375 98.0781 241.375C98.0781 241.375 98.9688 243.578 100.75 247.984C102.531 252.297 103.422 254.453 103.422 254.453C103.422 254.453 104.312 252.297 106.094 247.984C107.875 243.578 108.766 241.375 108.766 241.375C108.766 241.375 107.922 239.781 106.234 236.594C104.359 233.031 103.422 231.25 103.422 231.25C103.422 231.25 102.484 233.031 100.609 236.594ZM107.078 220C104.641 220 103.422 220 103.422 220C103.422 220 103.422 221.828 103.422 225.484C103.422 229.328 103.422 231.25 103.422 231.25C103.422 231.25 105.578 231.25 109.891 231.25C114.016 231.25 116.078 231.25 116.078 231.25C116.078 231.25 115.188 229.328 113.406 225.484C111.812 221.828 111.016 220 111.016 220C111.016 220 109.703 220 107.078 220ZM109.891 231.25C105.578 231.25 103.422 231.25 103.422 231.25C103.422 231.25 104.359 233.031 106.234 236.594C107.922 239.781 108.766 241.375 108.766 241.375C108.766 241.375 110.734 241.375 114.672 241.375C118.516 241.375 120.438 241.375 120.438 241.375C120.438 241.375 119.688 239.688 118.188 236.312C116.781 232.938 116.078 231.25 116.078 231.25C116.078 231.25 114.016 231.25 109.891 231.25ZM170.219 393.391C167.031 394.703 165.438 395.359 165.438 395.359C165.438 395.359 166.141 396.953 167.547 400.141C168.859 403.328 169.516 404.922 169.516 404.922C169.516 404.922 171.109 404.266 174.297 402.953C177.484 401.547 179.078 400.844 179.078 400.844C179.078 400.844 178.375 399.25 176.969 396.062C175.656 392.875 175 391.281 175 391.281C175 391.281 173.406 391.984 170.219 393.391ZM174.297 402.953C171.109 404.266 169.516 404.922 169.516 404.922C169.516 404.922 170.219 406.516 171.625 409.703C173.031 412.891 173.734 414.484 173.734 414.484C173.734 414.484 175.328 413.781 178.516 412.375C181.703 411.062 183.297 410.406 183.297 410.406C183.297 410.406 182.594 408.812 181.188 405.625C179.781 402.438 179.078 400.844 179.078 400.844C179.078 400.844 177.484 401.547 174.297 402.953ZM179.781 389.172C176.594 390.578 175 391.281 175 391.281C175 391.281 175.656 392.875 176.969 396.062C178.375 399.25 179.078 400.844 179.078 400.844C179.078 400.844 180.672 400.141 183.859 398.734C187.047 397.328 188.641 396.625 188.641 396.625C188.641 396.625 187.938 395.031 186.531 391.844C185.219 388.656 184.562 387.062 184.562 387.062C184.562 387.062 182.969 387.766 179.781 389.172ZM183.859 398.734C180.672 400.141 179.078 400.844 179.078 400.844C179.078 400.844 179.781 402.438 181.188 405.625C182.594 408.812 183.297 410.406 183.297 410.406C183.297 410.406 184.891 409.703 188.078 408.297C191.266 406.891 192.859 406.188 192.859 406.188C192.859 406.188 192.156 404.594 190.75 401.406C189.344 398.219 188.641 396.625 188.641 396.625C188.641 396.625 187.047 397.328 183.859 398.734ZM135.906 314.781C132.719 316.094 131.125 316.75 131.125 316.75C131.125 316.75 131.828 318.344 133.234 321.531C134.641 324.719 135.344 326.312 135.344 326.312C135.344 326.312 136.938 325.609 140.125 324.203C143.312 322.891 144.906 322.234 144.906 322.234C144.906 322.234 144.203 320.641 142.797 317.453C141.391 314.266 140.688 312.672 140.688 312.672C140.688 312.672 139.094 313.375 135.906 314.781ZM140.125 324.203C136.938 325.609 135.344 326.312 135.344 326.312C135.344 326.312 136 327.906 137.312 331.094C138.719 334.281 139.422 335.875 139.422 335.875C139.422 335.875 141.016 335.172 144.203 333.766C147.391 332.359 148.984 331.656 148.984 331.656C148.984 331.656 148.281 330.062 146.875 326.875C145.562 323.781 144.906 322.234 144.906 322.234C144.906 322.234 143.312 322.891 140.125 324.203ZM145.469 310.562C142.281 311.969 140.688 312.672 140.688 312.672C140.688 312.672 141.391 314.266 142.797 317.453C144.203 320.641 144.906 322.234 144.906 322.234C144.906 322.234 146.453 321.531 149.547 320.125C152.734 318.719 154.328 318.016 154.328 318.016C154.328 318.016 153.672 316.422 152.359 313.234C150.953 310.047 150.25 308.453 150.25 308.453C150.25 308.453 148.656 309.156 145.469 310.562ZM149.547 320.125C146.453 321.531 144.906 322.234 144.906 322.234C144.906 322.234 145.562 323.781 146.875 326.875C148.281 330.062 148.984 331.656 148.984 331.656C148.984 331.656 150.578 331 153.766 329.688C156.953 328.281 158.547 327.578 158.547 327.578C158.547 327.578 157.844 325.984 156.438 322.797C155.031 319.609 154.328 318.016 154.328 318.016C154.328 318.016 152.734 318.719 149.547 320.125ZM144.203 333.766C141.016 335.172 139.422 335.875 139.422 335.875C139.422 335.875 140.125 337.469 141.531 340.656C142.938 343.844 144.062 346.375 144.906 348.25C145.75 350.219 148.328 356.125 152.641 365.969C156.766 375.531 159.203 381.203 159.953 382.984C160.703 384.766 161.828 387.297 163.328 390.578C164.734 393.766 165.438 395.359 165.438 395.359C165.438 395.359 167.031 394.703 170.219 393.391C173.406 391.984 175 391.281 175 391.281C175 391.281 174.297 389.641 172.891 386.359C171.391 383.078 170.266 380.547 169.516 378.766C168.766 376.984 166.328 371.359 162.203 361.891C157.797 351.859 155.172 345.906 154.328 344.031C153.578 342.156 152.5 339.625 151.094 336.438C149.688 333.25 148.984 331.656 148.984 331.656C148.984 331.656 147.391 332.359 144.203 333.766ZM153.766 329.688C150.578 331 148.984 331.656 148.984 331.656C148.984 331.656 149.688 333.25 151.094 336.438C152.5 339.625 153.625 342.156 154.469 344.031C155.312 346 157.891 351.953 162.203 361.891C166.328 371.453 168.766 377.078 169.516 378.766C170.266 380.547 171.391 383.078 172.891 386.359C174.297 389.641 175 391.281 175 391.281C175 391.281 176.594 390.578 179.781 389.172C182.969 387.766 184.562 387.062 184.562 387.062C184.562 387.062 183.812 385.469 182.312 382.281C180.906 379 179.781 376.422 178.938 374.547C178.188 372.766 175.75 367.141 171.625 357.672C167.312 347.641 164.734 341.688 163.891 339.812C163.141 338.031 162.062 335.547 160.656 332.359C159.25 329.172 158.547 327.578 158.547 327.578C158.547 327.578 156.953 328.281 153.766 329.688ZM26.2188 390.156C22.8438 388.656 21.1562 387.906 21.1562 387.906C21.1562 387.906 20.5 389.5 19.1875 392.688C17.7812 395.875 17.0781 397.469 17.0781 397.469C17.0781 397.469 18.7656 398.219 22.1406 399.719C25.5156 401.125 27.2031 401.828 27.2031 401.828C27.2031 401.828 27.8594 400.234 29.1719 397.047C30.5781 393.859 31.2812 392.266 31.2812 392.266C31.2812 392.266 29.5938 391.562 26.2188 390.156ZM22.1406 399.719C18.7656 398.219 17.0781 397.469 17.0781 397.469C17.0781 397.469 16.375 399.062 14.9688 402.25C13.6562 405.438 13 407.031 13 407.031C13 407.031 14.6875 407.781 18.0625 409.281C21.3438 410.688 22.9844 411.391 22.9844 411.391C22.9844 411.391 23.6875 409.797 25.0938 406.609C26.5 403.422 27.2031 401.828 27.2031 401.828C27.2031 401.828 25.5156 401.125 22.1406 399.719ZM36.3438 394.375C32.9688 392.969 31.2812 392.266 31.2812 392.266C31.2812 392.266 30.5781 393.859 29.1719 397.047C27.8594 400.234 27.2031 401.828 27.2031 401.828C27.2031 401.828 28.8438 402.531 32.125 403.938C35.5 405.438 37.1875 406.188 37.1875 406.188C37.1875 406.188 37.8906 404.594 39.2969 401.406C40.6094 398.219 41.2656 396.625 41.2656 396.625C41.2656 396.625 39.625 395.875 36.3438 394.375ZM32.125 403.938C28.8438 402.531 27.2031 401.828 27.2031 401.828C27.2031 401.828 26.5 403.422 25.0938 406.609C23.6875 409.797 22.9844 411.391 22.9844 411.391C22.9844 411.391 24.6719 412.094 28.0469 413.5C31.4219 415 33.1094 415.75 33.1094 415.75C33.1094 415.75 33.8125 414.156 35.2188 410.969C36.5312 407.781 37.1875 406.188 37.1875 406.188C37.1875 406.188 35.5 405.438 32.125 403.938ZM51.9531 330.391C48.5781 328.984 46.8906 328.281 46.8906 328.281C46.8906 328.281 46.1875 329.875 44.7812 333.062C43.375 336.344 42.25 338.922 41.4062 340.797C40.5625 342.766 38.0312 348.719 33.8125 358.656C29.6875 368.219 27.25 373.844 26.5 375.531C25.75 377.219 24.6719 379.703 23.2656 382.984C21.8594 386.266 21.1562 387.906 21.1562 387.906C21.1562 387.906 22.8438 388.656 26.2188 390.156C29.5938 391.562 31.2812 392.266 31.2812 392.266C31.2812 392.266 31.9844 390.625 33.3906 387.344C34.7969 384.062 35.875 381.531 36.625 379.75C37.375 378.062 39.8125 372.484 43.9375 363.016C48.25 352.891 50.7812 346.891 51.5312 345.016C52.375 343.234 53.5 340.703 54.9062 337.422C56.3125 334.234 57.0156 332.641 57.0156 332.641C57.0156 332.641 55.3281 331.891 51.9531 330.391ZM61.9375 334.75C58.6562 333.344 57.0156 332.641 57.0156 332.641C57.0156 332.641 56.3125 334.234 54.9062 337.422C53.5 340.703 52.375 343.281 51.5312 345.156C50.6875 347.125 48.1562 353.078 43.9375 363.016C39.8125 372.484 37.375 378.062 36.625 379.75C35.875 381.531 34.7969 384.062 33.3906 387.344C31.9844 390.625 31.2812 392.266 31.2812 392.266C31.2812 392.266 32.9688 392.969 36.3438 394.375C39.625 395.875 41.2656 396.625 41.2656 396.625C41.2656 396.625 42.0156 394.984 43.5156 391.703C44.9219 388.422 46 385.891 46.75 384.109C47.5 382.328 49.8906 376.703 53.9219 367.234C58.3281 357.203 60.9062 351.25 61.6562 349.375C62.5 347.5 63.625 344.922 65.0312 341.641C66.3438 338.547 67 337 67 337C67 337 65.3125 336.25 61.9375 334.75ZM60.1094 311.266C56.7344 309.859 55.0469 309.156 55.0469 309.156C55.0469 309.156 54.3906 310.75 53.0781 313.938C51.6719 317.125 50.9688 318.719 50.9688 318.719C50.9688 318.719 52.6562 319.422 56.0312 320.828C59.4062 322.328 61.0938 323.078 61.0938 323.078C61.0938 323.078 61.75 321.484 63.0625 318.297C64.4688 315.109 65.1719 313.516 65.1719 313.516C65.1719 313.516 63.4844 312.766 60.1094 311.266ZM56.0312 320.828C52.6562 319.422 50.9688 318.719 50.9688 318.719C50.9688 318.719 50.3125 320.312 49 323.5C47.5938 326.688 46.8906 328.281 46.8906 328.281C46.8906 328.281 48.5781 328.984 51.9531 330.391C55.3281 331.891 57.0156 332.641 57.0156 332.641C57.0156 332.641 57.6719 331.047 58.9844 327.859C60.3906 324.672 61.0938 323.078 61.0938 323.078C61.0938 323.078 59.4062 322.328 56.0312 320.828ZM70.2344 315.625C66.8594 314.219 65.1719 313.516 65.1719 313.516C65.1719 313.516 64.4688 315.109 63.0625 318.297C61.75 321.484 61.0938 323.078 61.0938 323.078C61.0938 323.078 62.7812 323.781 66.1562 325.188C69.4375 326.688 71.0781 327.438 71.0781 327.438C71.0781 327.438 71.7812 325.844 73.1875 322.656C74.5938 319.469 75.2969 317.875 75.2969 317.875C75.2969 317.875 73.6094 317.125 70.2344 315.625ZM66.1562 325.188C62.7812 323.781 61.0938 323.078 61.0938 323.078C61.0938 323.078 60.3906 324.672 58.9844 327.859C57.6719 331.047 57.0156 332.641 57.0156 332.641C57.0156 332.641 58.6562 333.344 61.9375 334.75C65.3125 336.25 67 337 67 337C67 337 67.7031 335.406 69.1094 332.219C70.4219 329.031 71.0781 327.438 71.0781 327.438C71.0781 327.438 69.4375 326.688 66.1562 325.188Z" fill="white"/>
<path d="M243.219 326.875C239.469 326.875 237.594 326.875 237.594 326.875C237.594 326.875 237.594 330.156 237.594 336.719C237.594 340.094 237.594 347.453 237.594 358.797C237.594 370.234 237.594 380.5 237.594 389.594C237.594 397.188 237.594 400.984 237.594 400.984C237.594 400.984 239.562 398.5 243.5 393.531C247.25 388.938 249.125 386.641 249.125 386.641C249.125 386.641 249.125 382.984 249.125 375.672C249.125 370.328 249.125 367.656 249.125 367.656C249.125 367.656 249.125 365.266 249.125 360.484C249.125 356.078 249.125 351.859 249.125 347.828C249.125 343.797 249.125 340.094 249.125 336.719C249.125 330.156 249.125 326.875 249.125 326.875C249.125 326.875 247.156 326.875 243.219 326.875ZM307.203 328C304.297 325.375 302.844 324.062 302.844 324.062C302.844 324.062 300.594 326.5 296.094 331.375C288.312 340.281 279.922 349.984 270.922 360.484C261.922 371.078 252.781 382.094 243.5 393.531C239.562 398.5 237.594 400.984 237.594 400.984C237.594 400.984 237.594 403.047 237.594 407.172C237.594 410.641 237.594 412.375 237.594 412.375C237.594 412.375 238.531 412.375 240.406 412.375C241.344 412.375 241.812 412.375 241.812 412.375C241.812 412.375 245.141 408.438 251.797 400.562C263.234 387.156 272.938 375.719 280.906 366.25C288.969 356.875 297.031 347.828 305.094 339.109C309.406 334.234 311.562 331.797 311.562 331.797C311.562 331.797 310.109 330.531 307.203 328ZM378.781 220C377.844 220 377.375 220 377.375 220C377.375 220 374.047 223.938 367.391 231.812C355.953 245.219 346.297 256.562 338.422 265.844C330.547 275.219 322.578 284.406 314.516 293.406C310.297 298.188 308.188 300.578 308.188 300.578C308.188 300.578 309.641 301.844 312.547 304.375C315.453 306.906 316.906 308.172 316.906 308.172C316.906 308.172 319.016 305.781 323.234 301C331.016 291.812 340.766 280.234 352.484 266.266C364.203 252.391 371.703 243.531 374.984 239.688C379.391 234.156 381.594 231.391 381.594 231.391C381.594 231.391 381.594 229.328 381.594 225.203C381.594 221.734 381.594 220 381.594 220C381.594 220 380.656 220 378.781 220ZM374.984 239.688C371.703 243.531 370.062 245.453 370.062 245.453C370.062 245.453 370.062 249.203 370.062 256.703C370.062 261.391 370.062 263.734 370.062 263.734C370.062 263.734 370.062 266.453 370.062 271.891C370.062 276.297 370.062 280.516 370.062 284.547C370.062 288.578 370.062 292.281 370.062 295.656C370.062 302.219 370.062 305.5 370.062 305.5C370.062 305.5 372.031 305.5 375.969 305.5C379.719 305.5 381.594 305.5 381.594 305.5C381.594 305.5 381.594 302.219 381.594 295.656C381.594 292.281 381.594 284.875 381.594 273.438C381.594 262.094 381.594 251.875 381.594 242.781C381.594 235.188 381.594 231.391 381.594 231.391C381.594 231.391 379.391 234.156 374.984 239.688ZM231.688 326.875C227.938 326.875 226.062 326.875 226.062 326.875C226.062 326.875 226.062 330.156 226.062 336.719C226.062 340.094 226.062 349.609 226.062 365.266C226.062 381.016 226.062 392.172 226.062 398.734C226.062 400.234 226.062 400.984 226.062 400.984C226.062 400.984 227.984 400.984 231.828 400.984C235.672 400.984 237.594 400.984 237.594 400.984C237.594 400.984 237.594 400.234 237.594 398.734C237.594 392.641 237.594 381.625 237.594 365.688C237.594 349.75 237.594 340.094 237.594 336.719C237.594 330.156 237.594 326.875 237.594 326.875C237.594 326.875 235.625 326.875 231.688 326.875ZM298.344 320.266C295.531 317.734 294.125 316.469 294.125 316.469C294.125 316.469 291.875 318.953 287.375 323.922C279.688 332.547 273.875 339.25 269.938 344.031C266 348.906 261.172 354.672 255.453 361.328C251.234 366.109 249.125 368.453 249.125 368.359C249.125 368.359 249.125 370.797 249.125 375.672C249.125 382.984 249.125 386.641 249.125 386.641C249.125 386.641 254.234 380.5 264.453 368.219C270.359 361.281 275.188 355.609 278.938 351.203C282.688 346.891 288.406 340.281 296.094 331.375C300.594 326.5 302.844 324.062 302.844 324.062C302.844 324.062 301.344 322.797 298.344 320.266ZM370.062 256.703C370.062 249.203 370.062 245.453 370.062 245.453C370.062 245.453 366.594 249.578 359.656 257.828C350.562 268.609 344.141 276.203 340.391 280.609C336.734 285.016 331.016 291.812 323.234 301C319.016 305.781 316.906 308.172 316.906 308.172C316.906 308.172 318.266 309.391 320.984 311.828C323.984 314.547 325.484 315.906 325.484 315.906C325.484 315.906 327.641 313.469 331.953 308.594C339.641 299.875 345.359 293.078 349.109 288.203C352.953 283.422 357.828 277.703 363.734 271.047C367.953 266.172 370.062 263.734 370.062 263.734C370.062 263.734 370.062 261.391 370.062 256.703ZM387.359 231.391C383.516 231.391 381.594 231.391 381.594 231.391C381.594 231.391 381.594 232.234 381.594 233.922C381.594 240.297 381.594 251.312 381.594 266.969C381.594 282.719 381.594 292.281 381.594 295.656C381.594 302.219 381.594 305.5 381.594 305.5C381.594 305.5 383.562 305.5 387.5 305.5C391.25 305.5 393.125 305.5 393.125 305.5C393.125 305.5 393.125 302.219 393.125 295.656C393.125 292.281 393.125 282.719 393.125 266.969C393.125 251.312 393.125 240.297 393.125 233.922C393.125 232.234 393.125 231.391 393.125 231.391C393.125 231.391 391.203 231.391 387.359 231.391ZM231.828 400.984C227.984 400.984 226.062 400.984 226.062 400.984C226.062 400.984 226.062 403 226.062 407.031C226.062 410.594 226.062 412.375 226.062 412.375C226.062 412.375 227.984 412.375 231.828 412.375C235.672 412.375 237.594 412.375 237.594 412.375C237.594 412.375 237.594 410.594 237.594 407.031C237.594 403 237.594 400.984 237.594 400.984C237.594 400.984 235.672 400.984 231.828 400.984ZM387.359 220C383.516 220 381.594 220 381.594 220C381.594 220 381.594 222.016 381.594 226.047C381.594 229.609 381.594 231.391 381.594 231.391C381.594 231.391 383.516 231.391 387.359 231.391C391.203 231.391 393.125 231.391 393.125 231.391C393.125 231.391 393.125 229.609 393.125 226.047C393.125 222.016 393.125 220 393.125 220C393.125 220 391.203 220 387.359 220ZM231.828 220C227.984 220 226.062 220 226.062 220C226.062 220 226.062 221.781 226.062 225.344C226.062 228.906 226.062 230.688 226.062 230.688C226.062 230.688 227.984 230.688 231.828 230.688C235.672 230.688 237.594 230.688 237.594 230.688C237.594 230.688 237.594 228.906 237.594 225.344C237.594 221.781 237.594 220 237.594 220C237.594 220 235.672 220 231.828 220ZM231.828 230.688C227.984 230.688 226.062 230.688 226.062 230.688C226.062 230.688 226.062 232.469 226.062 236.031C226.062 239.594 226.062 241.375 226.062 241.375C226.062 241.375 227.984 241.375 231.828 241.375C235.672 241.375 237.594 241.375 237.594 241.375C237.594 241.375 237.594 239.594 237.594 236.031C237.594 232.469 237.594 230.688 237.594 230.688C237.594 230.688 235.672 230.688 231.828 230.688ZM243.359 220C239.516 220 237.594 220 237.594 220C237.594 220 237.594 221.781 237.594 225.344C237.594 228.906 237.594 230.688 237.594 230.688C237.594 230.688 239.516 230.688 243.359 230.688C247.203 230.688 249.125 230.688 249.125 230.688C249.125 230.688 249.125 228.906 249.125 225.344C249.125 221.781 249.125 220 249.125 220C249.125 220 247.203 220 243.359 220ZM243.359 230.688C239.516 230.688 237.594 230.688 237.594 230.688C237.594 230.688 237.594 232.469 237.594 236.031C237.594 239.594 237.594 241.375 237.594 241.375C237.594 241.375 239.516 241.375 243.359 241.375C247.203 241.375 249.125 241.375 249.125 241.375C249.125 241.375 249.125 239.594 249.125 236.031C249.125 232.469 249.125 230.688 249.125 230.688C249.125 230.688 247.203 230.688 243.359 230.688ZM375.828 391C371.984 391 370.062 391 370.062 391C370.062 391 370.062 392.781 370.062 396.344C370.062 399.906 370.062 401.688 370.062 401.688C370.062 401.688 371.984 401.688 375.828 401.688C379.672 401.688 381.594 401.688 381.594 401.688C381.594 401.688 381.594 399.906 381.594 396.344C381.594 392.781 381.594 391 381.594 391C381.594 391 379.672 391 375.828 391ZM375.828 401.688C371.984 401.688 370.062 401.688 370.062 401.688C370.062 401.688 370.062 403.469 370.062 407.031C370.062 410.594 370.062 412.375 370.062 412.375C370.062 412.375 371.984 412.375 375.828 412.375C379.672 412.375 381.594 412.375 381.594 412.375C381.594 412.375 381.594 410.594 381.594 407.031C381.594 403.469 381.594 401.688 381.594 401.688C381.594 401.688 379.672 401.688 375.828 401.688ZM387.359 391C383.516 391 381.594 391 381.594 391C381.594 391 381.594 392.781 381.594 396.344C381.594 399.906 381.594 401.688 381.594 401.688C381.594 401.688 383.516 401.688 387.359 401.688C391.203 401.688 393.125 401.688 393.125 401.688C393.125 401.688 393.125 399.906 393.125 396.344C393.125 392.781 393.125 391 393.125 391C393.125 391 391.203 391 387.359 391ZM387.359 401.688C383.516 401.688 381.594 401.688 381.594 401.688C381.594 401.688 381.594 403.469 381.594 407.031C381.594 410.594 381.594 412.375 381.594 412.375C381.594 412.375 383.516 412.375 387.359 412.375C391.203 412.375 393.125 412.375 393.125 412.375C393.125 412.375 393.125 410.594 393.125 407.031C393.125 403.469 393.125 401.688 393.125 401.688C393.125 401.688 391.203 401.688 387.359 401.688ZM231.828 241.375C227.984 241.375 226.062 241.375 226.062 241.375C226.062 241.375 226.062 243.156 226.062 246.719C226.062 250.281 226.062 252.906 226.062 254.594C226.062 256.375 226.062 262.656 226.062 273.438C226.062 283.844 226.062 289.984 226.062 291.859C226.062 293.828 226.062 296.594 226.062 300.156C226.062 303.719 226.062 305.5 226.062 305.5C226.062 305.5 227.984 305.5 231.828 305.5C235.672 305.5 237.594 305.5 237.594 305.5C237.594 305.5 237.594 303.719 237.594 300.156C237.594 296.594 237.594 293.828 237.594 291.859C237.594 289.891 237.594 283.75 237.594 273.438C237.594 262.469 237.594 256.141 237.594 254.453C237.594 252.859 237.594 250.281 237.594 246.719C237.594 243.156 237.594 241.375 237.594 241.375C237.594 241.375 235.672 241.375 231.828 241.375ZM243.359 241.375C239.516 241.375 237.594 241.375 237.594 241.375C237.594 241.375 237.594 243.156 237.594 246.719C237.594 250.281 237.594 252.906 237.594 254.594C237.594 256.375 237.594 262.656 237.594 273.438C237.594 283.844 237.594 289.984 237.594 291.859C237.594 293.828 237.594 296.594 237.594 300.156C237.594 303.719 237.594 305.5 237.594 305.5C237.594 305.5 239.516 305.5 243.359 305.5C247.203 305.5 249.125 305.5 249.125 305.5C249.125 305.5 249.125 303.719 249.125 300.156C249.125 296.594 249.125 293.828 249.125 291.859C249.125 289.891 249.125 283.75 249.125 273.438C249.125 262.469 249.125 256.141 249.125 254.453C249.125 252.859 249.125 250.281 249.125 246.719C249.125 243.156 249.125 241.375 249.125 241.375C249.125 241.375 247.203 241.375 243.359 241.375ZM375.828 326.875C371.984 326.875 370.062 326.875 370.062 326.875C370.062 326.875 370.062 328.656 370.062 332.219C370.062 335.781 370.062 338.5 370.062 340.375C370.062 342.344 370.062 348.719 370.062 359.5C370.062 369.906 370.062 375.953 370.062 377.641C370.062 379.422 370.062 382.094 370.062 385.656C370.062 389.219 370.062 391 370.062 391C370.062 391 371.984 391 375.828 391C379.672 391 381.594 391 381.594 391C381.594 391 381.594 389.219 381.594 385.656C381.594 382.094 381.594 379.422 381.594 377.641C381.594 375.859 381.594 369.812 381.594 359.5C381.594 348.531 381.594 342.109 381.594 340.234C381.594 338.453 381.594 335.781 381.594 332.219C381.594 328.656 381.594 326.875 381.594 326.875C381.594 326.875 379.672 326.875 375.828 326.875ZM387.359 326.875C383.516 326.875 381.594 326.875 381.594 326.875C381.594 326.875 381.594 328.656 381.594 332.219C381.594 335.781 381.594 338.5 381.594 340.375C381.594 342.344 381.594 348.719 381.594 359.5C381.594 369.906 381.594 375.953 381.594 377.641C381.594 379.422 381.594 382.094 381.594 385.656C381.594 389.219 381.594 391 381.594 391C381.594 391 383.516 391 387.359 391C391.203 391 393.125 391 393.125 391C393.125 391 393.125 389.219 393.125 385.656C393.125 382.094 393.125 379.422 393.125 377.641C393.125 375.859 393.125 369.812 393.125 359.5C393.125 348.531 393.125 342.109 393.125 340.234C393.125 338.453 393.125 335.781 393.125 332.219C393.125 328.656 393.125 326.875 393.125 326.875C393.125 326.875 391.203 326.875 387.359 326.875ZM231.828 305.5C227.984 305.5 226.062 305.5 226.062 305.5C226.062 305.5 226.062 307.281 226.062 310.844C226.062 314.406 226.062 316.188 226.062 316.188C226.062 316.188 227.984 316.188 231.828 316.188C235.672 316.188 237.594 316.188 237.594 316.188C237.594 316.188 237.594 314.406 237.594 310.844C237.594 307.281 237.594 305.5 237.594 305.5C237.594 305.5 235.672 305.5 231.828 305.5ZM231.828 316.188C227.984 316.188 226.062 316.188 226.062 316.188C226.062 316.188 226.062 317.969 226.062 321.531C226.062 325.094 226.062 326.875 226.062 326.875C226.062 326.875 227.984 326.875 231.828 326.875C235.672 326.875 237.594 326.875 237.594 326.875C237.594 326.875 237.594 325.094 237.594 321.531C237.594 317.969 237.594 316.188 237.594 316.188C237.594 316.188 235.672 316.188 231.828 316.188ZM243.359 305.5C239.516 305.5 237.594 305.5 237.594 305.5C237.594 305.5 237.594 307.281 237.594 310.844C237.594 314.406 237.594 316.188 237.594 316.188C237.594 316.188 239.516 316.188 243.359 316.188C247.203 316.188 249.125 316.188 249.125 316.188C249.125 316.188 249.125 314.406 249.125 310.844C249.125 307.281 249.125 305.5 249.125 305.5C249.125 305.5 247.203 305.5 243.359 305.5ZM243.359 316.188C239.516 316.188 237.594 316.188 237.594 316.188C237.594 316.188 237.594 317.969 237.594 321.531C237.594 325.094 237.594 326.875 237.594 326.875C237.594 326.875 239.516 326.875 243.359 326.875C247.203 326.875 249.125 326.875 249.125 326.875C249.125 326.875 249.125 325.094 249.125 321.531C249.125 317.969 249.125 316.188 249.125 316.188C249.125 316.188 247.203 316.188 243.359 316.188ZM375.828 305.5C371.984 305.5 370.062 305.5 370.062 305.5C370.062 305.5 370.062 307.281 370.062 310.844C370.062 314.406 370.062 316.188 370.062 316.188C370.062 316.188 371.984 316.188 375.828 316.188C379.672 316.188 381.594 316.188 381.594 316.188C381.594 316.188 381.594 314.406 381.594 310.844C381.594 307.281 381.594 305.5 381.594 305.5C381.594 305.5 379.672 305.5 375.828 305.5ZM375.828 316.188C371.984 316.188 370.062 316.188 370.062 316.188C370.062 316.188 370.062 317.969 370.062 321.531C370.062 325.094 370.062 326.875 370.062 326.875C370.062 326.875 371.984 326.875 375.828 326.875C379.672 326.875 381.594 326.875 381.594 326.875C381.594 326.875 381.594 325.094 381.594 321.531C381.594 317.969 381.594 316.188 381.594 316.188C381.594 316.188 379.672 316.188 375.828 316.188ZM387.359 305.5C383.516 305.5 381.594 305.5 381.594 305.5C381.594 305.5 381.594 307.281 381.594 310.844C381.594 314.406 381.594 316.188 381.594 316.188C381.594 316.188 383.516 316.188 387.359 316.188C391.203 316.188 393.125 316.188 393.125 316.188C393.125 316.188 393.125 314.406 393.125 310.844C393.125 307.281 393.125 305.5 393.125 305.5C393.125 305.5 391.203 305.5 387.359 305.5ZM387.359 316.188C383.516 316.188 381.594 316.188 381.594 316.188C381.594 316.188 381.594 317.969 381.594 321.531C381.594 325.094 381.594 326.875 381.594 326.875C381.594 326.875 383.516 326.875 387.359 326.875C391.203 326.875 393.125 326.875 393.125 326.875C393.125 326.875 393.125 325.094 393.125 321.531C393.125 317.969 393.125 316.188 393.125 316.188C393.125 316.188 391.203 316.188 387.359 316.188ZM312.547 304.375C309.734 301.844 308.328 300.578 308.328 300.578C308.328 300.578 307.156 301.891 304.812 304.516C302.375 307.141 301.156 308.453 301.156 308.453C301.156 308.453 302.609 309.766 305.516 312.391C308.422 314.922 309.875 316.188 309.875 316.188C309.875 316.188 311.047 314.828 313.391 312.109C315.734 309.484 316.906 308.172 316.906 308.172C316.906 308.172 315.453 306.906 312.547 304.375ZM305.516 312.391C302.609 309.766 301.156 308.453 301.156 308.453C301.156 308.453 299.984 309.812 297.641 312.531C295.297 315.156 294.125 316.469 294.125 316.469C294.125 316.469 295.578 317.781 298.484 320.406C301.391 322.938 302.844 324.203 302.844 324.203C302.844 324.203 304.016 322.844 306.359 320.125C308.703 317.5 309.875 316.188 309.875 316.188C309.875 316.188 308.422 314.922 305.516 312.391ZM321.266 311.969C318.359 309.438 316.906 308.172 316.906 308.172C316.906 308.172 315.734 309.484 313.391 312.109C311.047 314.828 309.875 316.188 309.875 316.188C309.875 316.188 311.328 317.453 314.234 319.984C317.047 322.516 318.453 323.781 318.453 323.781C318.453 323.781 319.625 322.469 321.969 319.844C324.406 317.125 325.625 315.766 325.625 315.766C325.625 315.766 324.172 314.5 321.266 311.969ZM314.234 319.984C311.328 317.453 309.875 316.188 309.875 316.188C309.875 316.188 308.703 317.5 306.359 320.125C304.016 322.844 302.844 324.203 302.844 324.203C302.844 324.203 304.25 325.469 307.062 328C309.969 330.531 311.422 331.797 311.422 331.797C311.422 331.797 312.594 330.484 314.938 327.859C317.281 325.141 318.453 323.781 318.453 323.781C318.453 323.781 317.047 322.516 314.234 319.984Z" fill="white"/>
</g>
<defs>
<clipPath id="clip0">
<rect width="414" height="414" fill="white"/>
</clipPath>
</defs>
</svg>
